<svg width="198" height="89" viewBox="0 0 198 89" fill="none" xmlns="http://www.w3.org/2000/svg">
<path fill-rule="evenodd" clip-rule="evenodd" d="M30.2478 62.9995C36.8183 62.9995 42.8995 60.9046 47.8598 57.3462V62.5895H59.7413C58.9615 62.0424 58.238 61.4198 57.5707 60.7213C56.1485 59.3414 55.0421 57.7224 54.2522 55.8644C53.462 53.9534 53.0668 51.9098 53.0668 49.7335C53.0668 47.6102 53.462 45.5933 54.2522 43.6823C55.0421 41.7713 56.1485 40.0994 57.5707 38.666C58.9403 37.2859 60.5734 36.1977 62.4697 35.4016C63.4815 34.9486 64.5309 34.6161 65.6176 34.4047V2.91627H47.8598V8.15718C42.8995 4.59885 36.8183 2.50391 30.2478 2.50391C13.5424 2.50391 0 16.0463 0 32.7517C0 49.4571 13.5424 62.9995 30.2478 62.9995ZM13.3249 32.7517C13.3249 42.0981 20.9017 49.6746 30.2478 49.6746C39.5942 49.6746 47.1707 42.0981 47.1707 32.7517C47.1707 23.4056 39.5942 15.8288 30.2478 15.8288C20.9017 15.8288 13.3249 23.4056 13.3249 32.7517Z" fill="#1D9BF0"/>
<path d="M77.6864 58.7597C78.8054 57.5887 79.6877 56.2442 80.3334 54.7263C81.022 53.2083 81.3663 51.5603 81.3663 49.7821C81.3663 48.0473 81.022 46.3992 80.3334 44.8379C79.6877 43.2766 78.8054 41.9104 77.6864 40.7394C76.5243 39.6118 75.147 38.7227 73.5546 38.0721C72.0051 37.3782 70.3481 37.0312 68.5834 37.0312C66.8188 37.0312 65.1618 37.3782 63.6123 38.0721C62.0629 38.7227 60.7286 39.6118 59.6096 40.7394C58.4475 41.9104 57.5437 43.2766 56.8981 44.8379C56.2525 46.3992 55.9297 48.0473 55.9297 49.7821C55.9297 51.5603 56.2525 53.23 56.8981 54.7913C57.5437 56.3093 58.4475 57.6321 59.6096 58.7597C60.7286 59.9307 62.0414 60.8415 63.5478 61.492C65.0972 62.1426 66.7758 62.4679 68.5834 62.4679C70.3481 62.4679 72.0051 62.1426 73.5546 61.492C75.147 60.8415 76.5243 59.9307 77.6864 58.7597Z" fill="#DBAC5B"/>
<path d="M108.191 25.1651V23.2478C108.052 23.4076 107.794 23.6273 107.418 23.9069C107.061 24.1665 106.595 24.4362 106.02 24.7158C105.465 24.9754 104.811 25.2051 104.058 25.4048C103.325 25.6045 102.502 25.7044 101.591 25.7044C100.183 25.7044 98.8653 25.4348 97.6364 24.8955C96.4076 24.3563 95.3274 23.6273 94.3958 22.7085C93.4841 21.7699 92.7607 20.6814 92.2256 19.4431C91.6904 18.2048 91.4229 16.8766 91.4229 15.4586C91.4229 14.0406 91.6904 12.7124 92.2256 11.4741C92.7607 10.2358 93.4841 9.15732 94.3958 8.23859C95.3274 7.29989 96.4076 6.56091 97.6364 6.02166C98.8653 5.48241 100.183 5.21278 101.591 5.21278C102.502 5.21278 103.295 5.29267 103.969 5.45245C104.663 5.61223 105.267 5.81195 105.782 6.05162C106.318 6.29129 106.773 6.56091 107.15 6.8605C107.546 7.14011 107.893 7.40974 108.191 7.66938V5.75203H111.758V25.1651H108.191ZM94.9904 15.4586C94.9904 16.2974 95.1787 17.1163 95.5553 17.9152C95.9319 18.6941 96.4274 19.4031 97.0418 20.0422C97.6761 20.6614 98.3797 21.1607 99.1526 21.5402C99.9454 21.9196 100.758 22.1094 101.591 22.1094C102.423 22.1094 103.226 21.9196 103.999 21.5402C104.791 21.1607 105.495 20.6614 106.109 20.0422C106.744 19.4031 107.249 18.6941 107.626 17.9152C108.002 17.1163 108.191 16.2974 108.191 15.4586C108.191 14.6198 108.002 13.8109 107.626 13.0319C107.249 12.2331 106.744 11.524 106.109 10.9049C105.495 10.2658 104.791 9.75649 103.999 9.37701C103.226 8.99754 102.423 8.8078 101.591 8.8078C100.758 8.8078 99.9454 8.99754 99.1526 9.37701C98.3797 9.75649 97.6761 10.2658 97.0418 10.9049C96.4274 11.524 95.9319 12.2331 95.5553 13.0319C95.1787 13.8109 94.9904 14.6198 94.9904 15.4586Z" fill="#132941"/>
<path d="M133.966 17.2561C133.966 18.4145 133.699 19.513 133.164 20.5515C132.648 21.5701 131.935 22.4589 131.023 23.2178C130.111 23.9768 129.051 24.586 127.842 25.0453C126.633 25.4847 125.335 25.7044 123.947 25.7044C122.54 25.7044 121.222 25.4348 119.993 24.8955C118.765 24.3563 117.684 23.6273 116.753 22.7085C115.841 21.7699 115.118 20.6814 114.583 19.4431C114.047 18.2048 113.78 16.8766 113.78 15.4586C113.78 14.0406 114.047 12.7124 114.583 11.4741C115.118 10.2358 115.841 9.15732 116.753 8.23859C117.684 7.29989 118.765 6.56091 119.993 6.02166C121.222 5.48241 122.54 5.21278 123.947 5.21278C125.335 5.21278 126.633 5.44246 127.842 5.90183C129.051 6.34122 130.111 6.94039 131.023 7.69934C131.935 8.45828 132.648 9.35704 133.164 10.3956C133.699 11.4142 133.966 12.5027 133.966 13.6611H130.31C130.31 12.982 130.141 12.3529 129.804 11.7737C129.487 11.1745 129.041 10.6552 128.466 10.2159C127.892 9.77646 127.218 9.43693 126.445 9.19726C125.672 8.93762 124.839 8.8078 123.947 8.8078C123.036 8.8078 122.174 8.98755 121.361 9.34705C120.568 9.68658 119.874 10.1559 119.28 10.7551C118.685 11.3543 118.21 12.0633 117.853 12.8822C117.516 13.6811 117.347 14.5399 117.347 15.4586C117.347 16.3773 117.516 17.2461 117.853 18.065C118.21 18.8639 118.685 19.5629 119.28 20.1621C119.874 20.7612 120.568 21.2406 121.361 21.6001C122.174 21.9396 123.036 22.1094 123.947 22.1094C124.839 22.1094 125.672 21.9895 126.445 21.7499C127.218 21.4902 127.892 21.1407 128.466 20.7013C129.041 20.2619 129.487 19.7526 129.804 19.1734C130.141 18.5743 130.31 17.9352 130.31 17.2561H133.966Z" fill="#132941"/>
<path d="M138.117 9.34705H134.549V5.75203H138.117V1.43801H141.685V5.75203H145.252V9.34705H141.685V25.1651H138.117V9.34705Z" fill="#132941"/>
<path d="M148.831 5.75203H152.399V25.1651H148.831V5.75203ZM148.831 1.79751C148.831 1.33815 149.01 0.928714 149.367 0.569211C149.743 0.189737 150.159 0 150.615 0C151.071 0 151.477 0.189737 151.834 0.569211C152.211 0.928714 152.399 1.33815 152.399 1.79751C152.399 2.25687 152.211 2.67629 151.834 3.05577C151.477 3.41527 151.071 3.59502 150.615 3.59502C150.159 3.59502 149.743 3.41527 149.367 3.05577C149.01 2.67629 148.831 2.25687 148.831 1.79751Z" fill="#132941"/>
<path d="M158.304 7.36979C158.74 6.97035 159.285 6.61084 159.939 6.29129C160.494 6.01167 161.178 5.76202 161.99 5.54232C162.803 5.32263 163.774 5.21278 164.904 5.21278C166.014 5.21278 167.133 5.36257 168.263 5.66216C169.393 5.96174 170.434 6.49101 171.385 7.24996C172.336 8.00891 173.139 9.05746 173.793 10.3956C174.467 11.7138 174.893 13.4014 175.071 15.4586V25.1651H171.504V15.4586C171.444 14.2203 171.167 13.1118 170.671 12.1332C170.453 11.7138 170.186 11.3143 169.869 10.9349C169.552 10.5354 169.165 10.1759 168.709 9.85635C168.253 9.53679 167.708 9.28714 167.074 9.10739C166.46 8.90766 165.736 8.8078 164.904 8.8078C164.071 8.8078 163.338 8.90766 162.704 9.10739C162.089 9.28714 161.554 9.53679 161.098 9.85635C160.642 10.1759 160.246 10.5354 159.909 10.9349C159.592 11.3143 159.334 11.7138 159.136 12.1332C158.641 13.1118 158.363 14.2203 158.304 15.4586V25.1651H154.736V5.75203H158.304V7.36979Z" fill="#132941"/>
<path d="M180.345 25.1651C180.345 26.0839 180.514 26.8928 180.851 27.5918C181.207 28.2908 181.683 28.87 182.278 29.3294C182.872 29.7887 183.566 30.1383 184.359 30.3779C185.171 30.6176 186.034 30.7374 186.945 30.7374C187.857 30.7374 188.709 30.5477 189.502 30.1682C190.315 29.7887 191.018 29.2795 191.613 28.6403C192.207 28.0212 192.673 27.3122 193.01 26.5133C193.367 25.7344 193.545 24.9255 193.545 24.0866V23.2478C193.288 23.5074 192.971 23.7871 192.594 24.0866C192.217 24.3663 191.762 24.6259 191.226 24.8656C190.691 25.1052 190.067 25.305 189.353 25.4647C188.66 25.6245 187.857 25.7044 186.945 25.7044C185.538 25.7044 184.22 25.4348 182.991 24.8955C181.762 24.3563 180.682 23.6273 179.751 22.7085C178.839 21.7699 178.115 20.6814 177.58 19.4431C177.045 18.2048 176.778 16.8766 176.778 15.4586C176.778 14.0406 177.045 12.7124 177.58 11.4741C178.115 10.2358 178.839 9.15732 179.751 8.23859C180.682 7.29989 181.762 6.56091 182.991 6.02166C184.22 5.48241 185.538 5.21278 186.945 5.21278C187.857 5.21278 188.65 5.29267 189.324 5.45245C190.017 5.61223 190.622 5.81195 191.137 6.05162C191.672 6.29129 192.128 6.56091 192.505 6.8605C192.901 7.14011 193.248 7.40974 193.545 7.66938V5.75203H197.113V24.0866C197.113 25.305 196.845 26.5233 196.31 27.7416C195.775 28.9599 195.042 30.0584 194.11 31.037C193.198 32.0157 192.128 32.8046 190.899 33.4037C189.671 34.0229 188.352 34.3325 186.945 34.3325C185.538 34.3325 184.22 34.1227 182.991 33.7033C181.762 33.2839 180.682 32.6747 179.751 31.8759C178.839 31.077 178.115 30.1083 177.58 28.9699C177.045 27.8514 176.778 26.5832 176.778 25.1651H180.345ZM180.345 15.4586C180.345 16.2974 180.534 17.1163 180.91 17.9152C181.287 18.6941 181.782 19.4031 182.397 20.0422C183.031 20.6614 183.734 21.1607 184.507 21.5402C185.3 21.9196 186.113 22.1094 186.945 22.1094C187.778 22.1094 188.58 21.9196 189.353 21.5402C190.146 21.1607 190.85 20.6614 191.464 20.0422C192.098 19.4031 192.604 18.6941 192.98 17.9152C193.357 17.1163 193.545 16.2974 193.545 15.4586C193.545 14.6198 193.357 13.8109 192.98 13.0319C192.604 12.2331 192.098 11.524 191.464 10.9049C190.85 10.2658 190.146 9.75649 189.353 9.37701C188.58 8.99754 187.778 8.8078 186.945 8.8078C186.113 8.8078 185.3 8.99754 184.507 9.37701C183.734 9.75649 183.031 10.2658 182.397 10.9049C181.782 11.524 181.287 12.2331 180.91 13.0319C180.534 13.8109 180.345 14.6198 180.345 15.4586Z" fill="#132941"/>
<path d="M91.4229 52.4221C91.4229 51.0125 91.6906 49.6922 92.226 48.4612C92.7614 47.2303 93.4852 46.1582 94.3974 45.2449C95.3295 44.3118 96.4103 43.5772 97.6398 43.0411C98.8693 42.5051 100.188 42.237 101.596 42.237C103.004 42.237 104.323 42.515 105.552 43.0709C106.782 43.607 107.853 44.3415 108.765 45.2747C109.697 46.2078 110.431 47.2898 110.966 48.5208C111.501 49.7517 111.769 51.0522 111.769 52.4221C111.769 53.8317 111.501 55.152 110.966 56.3829C110.431 57.6139 109.697 58.6959 108.765 59.629C107.853 60.5423 106.782 61.267 105.552 61.803C104.323 62.3391 103.004 62.6071 101.596 62.6071C100.188 62.6071 98.8693 62.3391 97.6398 61.803C96.4103 61.267 95.3295 60.5423 94.3974 59.629C93.4852 58.6959 92.7614 57.6139 92.226 56.3829C91.6906 55.152 91.4229 53.8317 91.4229 52.4221ZM94.9924 52.4221C94.9924 53.3354 95.1609 54.199 95.4981 55.013C95.855 55.8072 96.3309 56.5021 96.9259 57.0977C97.5208 57.6933 98.2149 58.1698 99.0081 58.5272C99.8211 58.8647 100.684 59.0334 101.596 59.0334C102.508 59.0334 103.361 58.8647 104.154 58.5272C104.967 58.1698 105.671 57.6933 106.266 57.0977C106.861 56.5021 107.327 55.8072 107.664 55.013C108.021 54.199 108.2 53.3354 108.2 52.4221C108.2 51.5088 108.021 50.6551 107.664 49.8609C107.327 49.0469 106.861 48.3421 106.266 47.7465C105.671 47.1509 104.967 46.6843 104.154 46.3468C103.361 45.9894 102.508 45.8107 101.596 45.8107C100.684 45.8107 99.8211 45.9894 99.0081 46.3468C98.2149 46.6843 97.5208 47.1509 96.9259 47.7465C96.3309 48.3421 95.855 49.0469 95.4981 49.8609C95.1609 50.6551 94.9924 51.5088 94.9924 52.4221Z" fill="#132941"/>
<path d="M116.588 46.3468H113.018V42.7731H116.588V40.6289C116.588 39.656 116.776 38.7527 117.153 37.9188C117.53 37.0651 118.036 36.3305 118.67 35.715C119.325 35.0797 120.078 34.5834 120.931 34.226C121.803 33.8488 122.735 33.6602 123.727 33.6602V37.2339C123.231 37.2339 122.765 37.3232 122.329 37.5019C121.912 37.6806 121.536 37.9287 121.199 38.2464C120.881 38.5442 120.623 38.9016 120.425 39.3185C120.247 39.7156 120.157 40.1524 120.157 40.6289V42.7731H123.727V46.3468H120.157V62.0711H116.588V46.3468Z" fill="#132941"/>
<path d="M128.498 46.3468H124.928V42.7731H128.498V40.6289C128.498 39.656 128.686 38.7527 129.063 37.9188C129.44 37.0651 129.946 36.3305 130.58 35.715C131.235 35.0797 131.988 34.5834 132.841 34.226C133.713 33.8488 134.645 33.6602 135.637 33.6602V37.2339C135.141 37.2339 134.675 37.3232 134.239 37.5019C133.822 37.6806 133.446 37.9287 133.109 38.2464C132.791 38.5442 132.533 38.9016 132.335 39.3185C132.157 39.7156 132.067 40.1524 132.067 40.6289V42.7731H135.637V46.3468H132.067V62.0711H128.498V46.3468Z" fill="#132941"/>
<path d="M139.218 42.7731H142.788V62.0711H139.218V42.7731ZM139.218 38.842C139.218 38.3854 139.397 37.9784 139.754 37.621C140.13 37.2438 140.547 37.0552 141.003 37.0552C141.459 37.0552 141.866 37.2438 142.222 37.621C142.599 37.9784 142.788 38.3854 142.788 38.842C142.788 39.2987 142.599 39.7156 142.222 40.0928C141.866 40.4502 141.459 40.6289 141.003 40.6289C140.547 40.6289 140.13 40.4502 139.754 40.0928C139.397 39.7156 139.218 39.2987 139.218 38.842Z" fill="#132941"/>
<path d="M164.491 54.2089C164.491 55.3605 164.223 56.4524 163.687 57.4848C163.172 58.4974 162.458 59.3809 161.546 60.1353C160.634 60.8898 159.573 61.4953 158.363 61.9519C157.153 62.3887 155.854 62.6071 154.466 62.6071C153.058 62.6071 151.739 62.3391 150.51 61.803C149.28 61.267 148.2 60.5423 147.268 59.629C146.355 58.6959 145.632 57.6139 145.096 56.3829C144.561 55.152 144.293 53.8317 144.293 52.4221C144.293 51.0125 144.561 49.6922 145.096 48.4612C145.632 47.2303 146.355 46.1582 147.268 45.2449C148.2 44.3118 149.28 43.5772 150.51 43.0411C151.739 42.5051 153.058 42.237 154.466 42.237C155.854 42.237 157.153 42.4654 158.363 42.922C159.573 43.3588 160.634 43.9544 161.546 44.7088C162.458 45.4633 163.172 46.3567 163.687 47.3891C164.223 48.4017 164.491 49.4837 164.491 50.6352H160.832C160.832 49.9602 160.663 49.3348 160.326 48.759C160.009 48.1634 159.563 47.6472 158.988 47.2104C158.412 46.7736 157.738 46.4361 156.965 46.1979C156.191 45.9398 155.359 45.8107 154.466 45.8107C153.554 45.8107 152.691 45.9894 151.878 46.3468C151.085 46.6843 150.391 47.1509 149.796 47.7465C149.201 48.3421 148.725 49.0469 148.368 49.8609C148.031 50.6551 147.863 51.5088 147.863 52.4221C147.863 53.3354 148.031 54.199 148.368 55.013C148.725 55.8072 149.201 56.5021 149.796 57.0977C150.391 57.6933 151.085 58.1698 151.878 58.5272C152.691 58.8647 153.554 59.0334 154.466 59.0334C155.359 59.0334 156.191 58.9143 156.965 58.6761C157.738 58.418 158.412 58.0705 158.988 57.6337C159.563 57.1969 160.009 56.6907 160.326 56.1149C160.663 55.5193 160.832 54.884 160.832 54.2089H164.491Z" fill="#132941"/>
<path d="M185.48 55.9958C185.48 56.9091 185.232 57.7727 184.736 58.5867C184.24 59.3809 183.556 60.0758 182.683 60.6714C181.831 61.267 180.819 61.7335 179.649 62.0711C178.499 62.4284 177.27 62.6071 175.961 62.6071C174.553 62.6071 173.234 62.3391 172.005 61.803C170.775 61.267 169.694 60.5423 168.762 59.629C167.85 58.6959 167.126 57.6139 166.591 56.3829C166.055 55.152 165.788 53.8317 165.788 52.4221C165.788 51.0125 166.055 49.6922 166.591 48.4612C167.126 47.2303 167.85 46.1582 168.762 45.2449C169.694 44.3118 170.775 43.5772 172.005 43.0411C173.234 42.5051 174.553 42.237 175.961 42.237C177.349 42.237 178.698 42.5051 180.006 43.0411C181.335 43.5573 182.485 44.3316 183.457 45.364C184.429 46.3766 185.152 47.6274 185.628 49.1164C186.124 50.6054 186.243 52.303 185.985 54.2089H169.595C169.595 54.6854 169.764 55.2016 170.101 55.7575C170.438 56.3134 170.894 56.8396 171.469 57.3359C172.044 57.8124 172.709 58.2194 173.462 58.5569C174.236 58.8746 175.069 59.0334 175.961 59.0334C176.734 59.0334 177.458 58.954 178.132 58.7952C178.807 58.6363 179.392 58.418 179.887 58.14C180.403 57.862 180.8 57.5444 181.077 57.187C181.375 56.8098 181.523 56.4127 181.523 55.9958H185.48ZM182.327 50.6352C182.227 50.2183 182.009 49.7319 181.672 49.176C181.335 48.6201 180.889 48.0939 180.334 47.5976C179.778 47.1012 179.134 46.6843 178.4 46.3468C177.666 45.9894 176.853 45.8107 175.961 45.8107C175.069 45.8107 174.255 45.9894 173.522 46.3468C172.788 46.6843 172.144 47.1012 171.588 47.5976C171.033 48.0939 170.577 48.6201 170.22 49.176C169.883 49.7319 169.675 50.2183 169.595 50.6352H182.327Z" fill="#132941"/>
<path d="M113.279 86.1583C112.522 86.1583 111.839 85.9876 111.231 85.6463C110.623 85.2943 110.143 84.8196 109.791 84.2223C109.439 83.6249 109.263 82.9476 109.263 82.1903C109.263 81.4436 109.434 80.7716 109.775 80.1743C110.127 79.5769 110.597 79.1076 111.183 78.7663C111.781 78.4143 112.447 78.2383 113.183 78.2383C113.887 78.2383 114.506 78.3983 115.039 78.7183C115.583 79.0383 116.005 79.4809 116.303 80.0463C116.613 80.6116 116.767 81.2516 116.767 81.9663C116.767 82.0729 116.762 82.1903 116.751 82.3183C116.741 82.4356 116.719 82.5743 116.687 82.7343H110.271V81.5343H115.919L115.391 81.9983C115.391 81.4863 115.301 81.0543 115.119 80.7023C114.938 80.3396 114.682 80.0623 114.351 79.8703C114.021 79.6676 113.621 79.5663 113.151 79.5663C112.661 79.5663 112.229 79.6729 111.855 79.8863C111.482 80.0996 111.194 80.3983 110.991 80.7823C110.789 81.1663 110.687 81.6196 110.687 82.1423C110.687 82.6756 110.794 83.1449 111.007 83.5503C111.221 83.9449 111.525 84.2543 111.919 84.4783C112.314 84.6916 112.767 84.7983 113.279 84.7983C113.706 84.7983 114.095 84.7236 114.447 84.5743C114.81 84.4249 115.119 84.2009 115.375 83.9023L116.303 84.8463C115.941 85.2729 115.493 85.5983 114.959 85.8223C114.437 86.0463 113.877 86.1583 113.279 86.1583Z" fill="#42484F"/>
<path d="M106.37 85.9982V81.5662C106.37 80.9902 106.188 80.5156 105.826 80.1422C105.463 79.7689 104.994 79.5822 104.418 79.5822C104.034 79.5822 103.692 79.6676 103.394 79.8382C103.095 80.0089 102.86 80.2436 102.69 80.5422C102.519 80.8409 102.434 81.1822 102.434 81.5662L101.842 81.2302C101.842 80.6542 101.97 80.1422 102.226 79.6942C102.482 79.2462 102.839 78.8942 103.298 78.6382C103.756 78.3716 104.274 78.2382 104.85 78.2382C105.426 78.2382 105.932 78.3662 106.37 78.6222C106.818 78.8782 107.17 79.2356 107.426 79.6942C107.682 80.1529 107.81 80.6809 107.81 81.2782V85.9982H106.37ZM100.994 85.9982V74.5742H102.434V85.9982H100.994Z" fill="#42484F"/>
<path d="M96.2709 85.9988V75.2148H97.7109V85.9988H96.2709ZM94.3989 79.7108V78.3988H99.5829V79.7108H94.3989Z" fill="#42484F"/>
<path d="M86.1843 86.1583C85.4376 86.1583 84.7656 85.9823 84.1683 85.6303C83.571 85.2783 83.0963 84.8036 82.7443 84.2063C82.3923 83.5983 82.2163 82.9209 82.2163 82.1743C82.2163 81.4383 82.3923 80.7769 82.7443 80.1903C83.0963 79.5929 83.571 79.1183 84.1683 78.7663C84.7656 78.4143 85.4376 78.2383 86.1843 78.2383C86.9203 78.2383 87.587 78.4143 88.1843 78.7663C88.7923 79.1076 89.2723 79.5769 89.6243 80.1743C89.9763 80.7716 90.1523 81.4383 90.1523 82.1743C90.1523 82.9209 89.9763 83.5983 89.6243 84.2063C89.2723 84.8036 88.7923 85.2783 88.1843 85.6303C87.587 85.9823 86.9203 86.1583 86.1843 86.1583ZM86.1843 84.7663C86.6643 84.7663 87.091 84.6543 87.4643 84.4303C87.8376 84.2063 88.131 83.9023 88.3443 83.5183C88.5576 83.1236 88.6643 82.6756 88.6643 82.1743C88.6643 81.6836 88.5523 81.2463 88.3283 80.8623C88.115 80.4783 87.8216 80.1796 87.4483 79.9663C87.0856 79.7423 86.6643 79.6303 86.1843 79.6303C85.7043 79.6303 85.2776 79.7423 84.9043 79.9663C84.531 80.1796 84.2376 80.4783 84.0243 80.8623C83.811 81.2463 83.7043 81.6836 83.7043 82.1743C83.7043 82.6756 83.811 83.1236 84.0243 83.5183C84.2376 83.9023 84.531 84.2063 84.9043 84.4303C85.2776 84.6543 85.7043 84.7663 86.1843 84.7663Z" fill="#42484F"/>
<path d="M78.2241 85.9988V75.2148H79.6641V85.9988H78.2241ZM76.3521 79.7108V78.3988H81.5361V79.7108H76.3521Z" fill="#42484F"/>
<path d="M68.6698 86.1583C67.9125 86.1583 67.2298 85.9876 66.6218 85.6463C66.0138 85.2943 65.5338 84.8196 65.1818 84.2223C64.8298 83.6249 64.6538 82.9476 64.6538 82.1903C64.6538 81.4436 64.8245 80.7716 65.1658 80.1743C65.5178 79.5769 65.9871 79.1076 66.5738 78.7663C67.1711 78.4143 67.8378 78.2383 68.5738 78.2383C69.2778 78.2383 69.8965 78.3983 70.4298 78.7183C70.9738 79.0383 71.3951 79.4809 71.6938 80.0463C72.0031 80.6116 72.1578 81.2516 72.1578 81.9663C72.1578 82.0729 72.1525 82.1903 72.1418 82.3183C72.1311 82.4356 72.1098 82.5743 72.0778 82.7343H65.6618V81.5343H71.3098L70.7818 81.9983C70.7818 81.4863 70.6911 81.0543 70.5098 80.7023C70.3285 80.3396 70.0725 80.0623 69.7418 79.8703C69.4111 79.6676 69.0111 79.5663 68.5418 79.5663C68.0511 79.5663 67.6191 79.6729 67.2458 79.8863C66.8725 80.0996 66.5845 80.3983 66.3818 80.7823C66.1791 81.1663 66.0778 81.6196 66.0778 82.1423C66.0778 82.6756 66.1845 83.1449 66.3978 83.5503C66.6111 83.9449 66.9151 84.2543 67.3098 84.4783C67.7045 84.6916 68.1578 84.7983 68.6698 84.7983C69.0965 84.7983 69.4858 84.7236 69.8378 84.5743C70.2005 84.4249 70.5098 84.2009 70.7658 83.9023L71.6938 84.8463C71.3311 85.2729 70.8831 85.5983 70.3498 85.8223C69.8271 86.0463 69.2671 86.1583 68.6698 86.1583Z" fill="#42484F"/>
<path d="M51.4624 85.9983V78.3983H52.9024V85.9983H51.4624ZM56.5984 85.9983V81.4063C56.5984 80.8409 56.4224 80.3983 56.0704 80.0783C55.7291 79.7476 55.2971 79.5823 54.7744 79.5823C54.4224 79.5823 54.1077 79.6569 53.8304 79.8063C53.5531 79.9556 53.3291 80.1636 53.1584 80.4303C52.9877 80.6969 52.9024 81.0169 52.9024 81.3903L52.3104 81.1023C52.3104 80.5263 52.4331 80.0249 52.6784 79.5983C52.9344 79.1716 53.2811 78.8409 53.7184 78.6063C54.1557 78.3609 54.6464 78.2383 55.1904 78.2383C55.7237 78.2383 56.2037 78.3556 56.6304 78.5903C57.0677 78.8249 57.4091 79.1556 57.6544 79.5823C57.9104 80.0089 58.0384 80.5156 58.0384 81.1023V85.9983H56.5984ZM61.7344 85.9983V81.4063C61.7344 80.8409 61.5584 80.3983 61.2064 80.0783C60.8651 79.7476 60.4384 79.5823 59.9264 79.5823C59.5744 79.5823 59.2544 79.6569 58.9664 79.8063C58.6891 79.9556 58.4651 80.1636 58.2944 80.4303C58.1237 80.6969 58.0384 81.0169 58.0384 81.3903L57.2224 81.1023C57.2544 80.5156 57.4091 80.0143 57.6864 79.5983C57.9744 79.1716 58.3424 78.8409 58.7904 78.6063C59.2384 78.3609 59.7291 78.2383 60.2624 78.2383C60.8171 78.2383 61.3131 78.3556 61.7504 78.5903C62.1877 78.8249 62.5344 79.1556 62.7904 79.5823C63.0571 80.0089 63.1904 80.5209 63.1904 81.1183V85.9983H61.7344Z" fill="#42484F"/>
<path d="M45.8718 86.1583C45.1251 86.1583 44.4531 85.9823 43.8558 85.6303C43.2585 85.2783 42.7838 84.8036 42.4318 84.2063C42.0798 83.5983 41.9038 82.9209 41.9038 82.1743C41.9038 81.4383 42.0798 80.7769 42.4318 80.1903C42.7838 79.5929 43.2585 79.1183 43.8558 78.7663C44.4531 78.4143 45.1251 78.2383 45.8718 78.2383C46.6078 78.2383 47.2745 78.4143 47.8718 78.7663C48.4798 79.1076 48.9598 79.5769 49.3118 80.1743C49.6638 80.7716 49.8398 81.4383 49.8398 82.1743C49.8398 82.9209 49.6638 83.5983 49.3118 84.2063C48.9598 84.8036 48.4798 85.2783 47.8718 85.6303C47.2745 85.9823 46.6078 86.1583 45.8718 86.1583ZM45.8718 84.7663C46.3518 84.7663 46.7785 84.6543 47.1518 84.4303C47.5251 84.2063 47.8185 83.9023 48.0318 83.5183C48.2451 83.1236 48.3518 82.6756 48.3518 82.1743C48.3518 81.6836 48.2398 81.2463 48.0158 80.8623C47.8025 80.4783 47.5091 80.1796 47.1358 79.9663C46.7731 79.7423 46.3518 79.6303 45.8718 79.6303C45.3918 79.6303 44.9651 79.7423 44.5918 79.9663C44.2185 80.1796 43.9251 80.4783 43.7118 80.8623C43.4985 81.2463 43.3918 81.6836 43.3918 82.1743C43.3918 82.6756 43.4985 83.1236 43.7118 83.5183C43.9251 83.9023 44.2185 84.2063 44.5918 84.4303C44.9651 84.6543 45.3918 84.7663 45.8718 84.7663Z" fill="#42484F"/>
<path d="M38.1843 86.1583C37.4376 86.1583 36.7603 85.9823 36.1523 85.6303C35.555 85.2783 35.0803 84.8036 34.7283 84.2063C34.387 83.5983 34.2163 82.9263 34.2163 82.1903C34.2163 81.4436 34.387 80.7716 34.7283 80.1743C35.0803 79.5769 35.555 79.1076 36.1523 78.7663C36.7603 78.4143 37.4376 78.2383 38.1843 78.2383C38.771 78.2383 39.315 78.3503 39.8163 78.5743C40.3176 78.7876 40.7496 79.1023 41.1123 79.5183L40.1523 80.4783C39.9176 80.2009 39.6296 79.9929 39.2883 79.8543C38.9576 79.7049 38.5896 79.6303 38.1843 79.6303C37.7043 79.6303 37.2776 79.7423 36.9043 79.9663C36.531 80.1796 36.2376 80.4783 36.0243 80.8623C35.811 81.2463 35.7043 81.6889 35.7043 82.1903C35.7043 82.6916 35.811 83.1343 36.0243 83.5183C36.2376 83.9023 36.531 84.2063 36.9043 84.4303C37.2776 84.6543 37.7043 84.7663 38.1843 84.7663C38.5896 84.7663 38.9576 84.6969 39.2883 84.5583C39.6296 84.4089 39.923 84.1956 40.1683 83.9183L41.1123 84.8783C40.7603 85.2836 40.3283 85.5983 39.8163 85.8223C39.315 86.0463 38.771 86.1583 38.1843 86.1583Z" fill="#42484F"/>
<path d="M31.1655 85.9982V74.5742H32.6055V85.9982H31.1655Z" fill="#42484F"/>
<path d="M26.1073 86.1583C25.35 86.1583 24.6673 85.9876 24.0593 85.6463C23.4513 85.2943 22.9713 84.8196 22.6193 84.2223C22.2673 83.6249 22.0913 82.9476 22.0913 82.1903C22.0913 81.4436 22.262 80.7716 22.6033 80.1743C22.9553 79.5769 23.4246 79.1076 24.0113 78.7663C24.6086 78.4143 25.2753 78.2383 26.0113 78.2383C26.7153 78.2383 27.334 78.3983 27.8673 78.7183C28.4113 79.0383 28.8326 79.4809 29.1313 80.0463C29.4406 80.6116 29.5953 81.2516 29.5953 81.9663C29.5953 82.0729 29.59 82.1903 29.5793 82.3183C29.5686 82.4356 29.5473 82.5743 29.5153 82.7343H23.0993V81.5343H28.7473L28.2193 81.9983C28.2193 81.4863 28.1286 81.0543 27.9473 80.7023C27.766 80.3396 27.51 80.0623 27.1793 79.8703C26.8486 79.6676 26.4486 79.5663 25.9793 79.5663C25.4886 79.5663 25.0566 79.6729 24.6833 79.8863C24.31 80.0996 24.022 80.3983 23.8193 80.7823C23.6166 81.1663 23.5153 81.6196 23.5153 82.1423C23.5153 82.6756 23.622 83.1449 23.8353 83.5503C24.0486 83.9449 24.3526 84.2543 24.7473 84.4783C25.142 84.6916 25.5953 84.7983 26.1073 84.7983C26.534 84.7983 26.9233 84.7236 27.2753 84.5743C27.638 84.4249 27.9473 84.2009 28.2033 83.9023L29.1313 84.8463C28.7686 85.2729 28.3206 85.5983 27.7873 85.8223C27.2646 86.0463 26.7046 86.1583 26.1073 86.1583Z" fill="#42484F"/>
<path d="M11.1442 85.9985L7.51221 74.8945H9.01621L11.8962 83.9505H11.4642L14.2962 74.8945H15.3842L18.2162 83.9505H17.8002L20.6802 74.8945H22.1682L18.5522 85.9985H17.4802L14.6322 76.9585H15.0482L12.2162 85.9985H11.1442Z" fill="#42484F"/>
<path d="M122 75C122 73.3431 123.343 72 125 72H181C182.657 72 184 73.3431 184 75V86C184 87.6569 182.657 89 181 89H125C123.343 89 122 87.6569 122 86V75Z" fill="#1D9BF0"/>
<path d="M172.201 86.1583C171.444 86.1583 170.761 85.9876 170.153 85.6463C169.545 85.2943 169.065 84.8196 168.713 84.2223C168.361 83.6249 168.185 82.9476 168.185 82.1903C168.185 81.4436 168.356 80.7716 168.697 80.1743C169.049 79.5769 169.518 79.1076 170.105 78.7663C170.702 78.4143 171.369 78.2383 172.105 78.2383C172.809 78.2383 173.428 78.3983 173.961 78.7183C174.505 79.0383 174.926 79.4809 175.225 80.0463C175.534 80.6116 175.689 81.2516 175.689 81.9663C175.689 82.0729 175.684 82.1903 175.673 82.3183C175.662 82.4356 175.641 82.5743 175.609 82.7343H169.193V81.5343H174.841L174.313 81.9983C174.313 81.4863 174.222 81.0543 174.041 80.7023C173.86 80.3396 173.604 80.0623 173.273 79.8703C172.942 79.6676 172.542 79.5663 172.073 79.5663C171.582 79.5663 171.15 79.6729 170.777 79.8863C170.404 80.0996 170.116 80.3983 169.913 80.7823C169.71 81.1663 169.609 81.6196 169.609 82.1423C169.609 82.6756 169.716 83.1449 169.929 83.5503C170.142 83.9449 170.446 84.2543 170.841 84.4783C171.236 84.6916 171.689 84.7983 172.201 84.7983C172.628 84.7983 173.017 84.7236 173.369 84.5743C173.732 84.4249 174.041 84.2009 174.297 83.9023L175.225 84.8463C174.862 85.2729 174.414 85.5983 173.881 85.8223C173.358 86.0463 172.798 86.1583 172.201 86.1583Z" fill="white"/>
<path d="M162.509 85.9983V78.3983H163.949V85.9983H162.509ZM163.949 81.6623L163.405 81.4223C163.405 80.4516 163.629 79.6783 164.077 79.1023C164.525 78.5263 165.171 78.2383 166.013 78.2383C166.397 78.2383 166.744 78.3076 167.053 78.4463C167.363 78.5743 167.651 78.7929 167.917 79.1023L166.973 80.0783C166.813 79.9076 166.637 79.7849 166.445 79.7103C166.253 79.6356 166.029 79.5983 165.773 79.5983C165.24 79.5983 164.803 79.7689 164.461 80.1103C164.12 80.4516 163.949 80.9689 163.949 81.6623Z" fill="white"/>
<path d="M157.331 86.1584C156.702 86.1584 156.136 86.0198 155.635 85.7424C155.144 85.4544 154.76 85.0598 154.483 84.5584C154.206 84.0571 154.067 83.4758 154.067 82.8144V78.3984H155.507V82.7504C155.507 83.1664 155.576 83.5291 155.715 83.8384C155.864 84.1371 156.078 84.3664 156.355 84.5264C156.632 84.6864 156.958 84.7664 157.331 84.7664C157.896 84.7664 158.339 84.5904 158.659 84.2384C158.979 83.8758 159.139 83.3798 159.139 82.7504V78.3984H160.579V82.8144C160.579 83.4758 160.44 84.0571 160.163 84.5584C159.886 85.0598 159.502 85.4544 159.011 85.7424C158.531 86.0198 157.971 86.1584 157.331 86.1584Z" fill="white"/>
<path d="M149.537 85.9988V75.2148H150.977V85.9988H149.537ZM147.665 79.7108V78.3988H152.849V79.7108H147.665Z" fill="white"/>
<path d="M143.19 86.1584C142.561 86.1584 141.996 86.0198 141.494 85.7424C141.004 85.4544 140.62 85.0598 140.342 84.5584C140.065 84.0571 139.926 83.4758 139.926 82.8144V78.3984H141.366V82.7504C141.366 83.1664 141.436 83.5291 141.574 83.8384C141.724 84.1371 141.937 84.3664 142.214 84.5264C142.492 84.6864 142.817 84.7664 143.19 84.7664C143.756 84.7664 144.198 84.5904 144.518 84.2384C144.838 83.8758 144.998 83.3798 144.998 82.7504V78.3984H146.438V82.8144C146.438 83.4758 146.3 84.0571 146.022 84.5584C145.745 85.0598 145.361 85.4544 144.87 85.7424C144.39 86.0198 143.83 86.1584 143.19 86.1584Z" fill="white"/>
<path d="M131.312 85.9985V74.8945H132.816V85.9985H131.312ZM132.336 81.1185V79.7425H138.128V81.1185H132.336ZM132.336 76.2705V74.8945H138.4V76.2705H132.336Z" fill="white"/>
</svg>
